{
  "accessors": [
    {
      "bufferView": 2,
      "componentType": 5126,
      "count": 9639,
      "max": [
        618.1401977539063,
        446.9881896972656,
        902.4902954101563
      ],
      "min": [
        -714.8848266601563,
        -3.1412200927734375,
        -891.4157104492188
      ],
      "type": "VEC3"
    },
    {
      "bufferView": 2,
      "byteOffset": 115668,
      "componentType": 5126,
      "count": 9639,
      "max": [
        0.9995050430297852,
        0.9999997615814209,
        0.9999127984046936
      ],
      "min": [
        -0.9992768168449402,
        -0.9999927878379822,
        -0.9999092817306519
      ],
      "type": "VEC3"
    },
    {
      "bufferView": 1,
      "componentType": 5126,
      "count": 9639,
      "max": [
        0.9980679750442505,
        0.9981679916381836
      ],
      "min": [
        0.00250852108001709,
        0.0029761791229248047
      ],
      "type": "VEC2"
    },
    {
      "bufferView": 1,
      "byteOffset": 77112,
      "componentType": 5126,
      "count": 9639,
      "max": [
        0.9980679750442505,
        0.9981679916381836
      ],
      "min": [
        0.00250852108001709,
        0.0029761791229248047
      ],
      "type": "VEC2"
    },
    {
      "bufferView": 1,
      "byteOffset": 154224,
      "componentType": 5126,
      "count": 9639,
      "max": [
        0.9980679750442505,
        0.9981679916381836
      ],
      "min": [
        0.00250852108001709,
        0.0029761791229248047
      ],
      "type": "VEC2"
    },
    {
      "bufferView": 0,
      "componentType": 5125,
      "count": 48222,
      "type": "SCALAR"
    }
  ],
  "asset": {
    "extras": {
      "author": "CGreature (https://sketchfab.com/CGreature)",
      "license": "CC-BY-4.0 (http://creativecommons.org/licenses/by/4.0/)",
      "source": "https://sketchfab.com/3d-models/the-alduin-dragon-dd04d9599a2d40b49a26d197b12b475c",
      "title": "The Alduin Dragon"
    },
    "generator": "Sketchfab-15.19.0",
    "version": "2.0"
  },
  "bufferViews": [
    {
      "buffer": 0,
      "byteLength": 192888,
      "name": "floatBufferViews",
      "target": 34963
    },
    {
      "buffer": 0,
      "byteLength": 231336,
      "byteOffset": 192888,
      "byteStride": 8,
      "name": "floatBufferViews",
      "target": 34962
    },
    {
      "buffer": 0,
      "byteLength": 231336,
      "byteOffset": 424224,
      "byteStride": 12,
      "name": "floatBufferViews",
      "target": 34962
    }
  ],
  "buffers": [
    {
      "byteLength": 655560,
      "uri": "scene.bin"
    }
  ],
  "images": [
    {
      "uri": "textures/Future_Dragon_Diffuse_baseColor.jpeg"
    },
    {
      "uri": "textures/Future_Dragon_Diffuse_metallicRoughness.png"
    }
  ],
  "materials": [
    {
      "doubleSided": true,
      "name": "Future_Dragon_Diffuse",
      "pbrMetallicRoughness": {
        "baseColorTexture": {
          "index": 0
        },
        "metallicRoughnessTexture": {
          "index": 1
        }
      }
    }
  ],
  "meshes": [
    {
      "name": "Object_0",
      "primitives": [
        {
          "attributes": {
            "NORMAL": 1,
            "POSITION": 0,
            "TEXCOORD_0": 2,
            "TEXCOORD_1": 3,
            "TEXCOORD_2": 4
          },
          "indices": 5,
          "material": 0,
          "mode": 4
        }
      ]
    }
  ],
  "nodes": [
    {
      "children": [
        1
      ],
      "matrix": [
        1.0,
        0.0,
        0.0,
        0.0,
        0.0,
        2.220446049250313e-16,
        -1.0,
        0.0,
        0.0,
        1.0,
        2.220446049250313e-16,
        0.0,
        0.0,
        0.0,
        0.0,
        1.0
      ],
      "name": "Sketchfab_model"
    },
    {
      "children": [
        2
      ],
      "name": "root"
    },
    {
      "children": [
        3
      ],
      "matrix": [
        1.0,
        0.0,
        0.0,
        0.0,
        0.0,
        2.220446049250313e-16,
        1.0,
        0.0,
        0.0,
        -1.0,
        2.220446049250313e-16,
        0.0,
        0.0,
        0.0,
        0.0,
        1.0
      ],
      "name": "GLTF_SceneRootNode"
    },
    {
      "children": [
        4
      ],
      "matrix": [
        -5.01898925940768e-10,
        0.0005070908980588777,
        0.005603882230576413,
        0.0,
        -6.004935229469673e-10,
        0.005603880839277109,
        -0.0005070907721613511,
        0.0,
        -0.005626777652651018,
        -6.43281682763185e-10,
        -4.4573944800578364e-10,
        0.0,
        0.0,
        0.0,
        0.0,
        1.0
      ],
      "name": "Future_Dragon_Diffuse-material.001_0"
    },
    {
      "mesh": 0,
      "name": "Object_4"
    }
  ],
  "samplers": [
    {
      "magFilter": 9729,
      "minFilter": 9987,
      "wrapS": 10497,
      "wrapT": 10497
    }
  ],
  "scene": 0,
  "scenes": [
    {
      "name": "Sketchfab_Scene",
      "nodes": [
        0
      ]
    }
  ],
  "textures": [
    {
      "sampler": 0,
      "source": 0
    },
    {
      "sampler": 0,
      "source": 1
    }
  ]
}
